<svg width="32" height="32" viewBox="0 0 32 32" fill="none" xmlns="http://www.w3.org/2000/svg">
<path fill-rule="evenodd" clip-rule="evenodd" d="M0 16C0 7.164 7.164 0 16 0C24.836 0 32 7.164 32 16C32 24.836 24.836 32 16 32C7.164 32 0 24.836 0 16ZM15.1774 20.3595L21.7872 13.6115C22.129 13.2625 22.129 12.6984 21.7872 12.3494C21.4453 12.0004 20.8928 12.0004 20.5509 12.3494L14.5593 18.4663L12.1585 16.0153C11.8166 15.6663 11.264 15.6663 10.9222 16.0153C10.5803 16.3643 10.5803 16.9284 10.9222 17.2774L13.9412 20.3595C14.1047 20.5273 14.3276 20.621 14.5593 20.621C14.791 20.621 15.0131 20.5273 15.1774 20.3595Z" fill="#037F5F"/>
</svg>
